<svg viewBox="0 0 200 200" xmlns="http://www.w3.org/2000/svg">
  <defs>
    <linearGradient id="skyBg" x1="0%" y1="0%" x2="0%" y2="100%">
      <stop offset="0%" style="stop-color:#dbeafe;stop-opacity:1" />
      <stop offset="100%" style="stop-color:#bfdbfe;stop-opacity:1" />
    </linearGradient>
  </defs>
  
  <!-- Background circle -->
  <circle cx="100" cy="100" r="90" fill="url(#skyBg)"/>
  
  <!-- Nest base -->
  <ellipse cx="100" cy="135" rx="55" ry="25" fill="#92400e" opacity="0.3"/>
  <path d="M 50 135 Q 50 125, 100 120 Q 150 125, 150 135 Q 150 145, 100 148 Q 50 145, 50 135 Z" 
        fill="#b45309" stroke="#92400e" stroke-width="2"/>
  
  <!-- Nest texture lines -->
  <path d="M 60 130 L 140 130" stroke="#92400e" stroke-width="2" stroke-linecap="round"/>
  <path d="M 65 137 L 135 137" stroke="#92400e" stroke-width="2" stroke-linecap="round"/>
  <path d="M 70 143 L 130 143" stroke="#92400e" stroke-width="1.5" stroke-linecap="round"/>
  
  <!-- Left bird (blue) -->
  <!-- Body -->
  <ellipse cx="80" cy="110" rx="18" ry="22" fill="#60a5fa" stroke="#2563eb" stroke-width="2.5"/>
  
  <!-- Wing -->
  <ellipse cx="72" cy="115" rx="8" ry="12" fill="#3b82f6" stroke="#2563eb" stroke-width="2"/>
  
  <!-- Head -->
  <circle cx="80" cy="90" r="14" fill="#60a5fa" stroke="#2563eb" stroke-width="2.5"/>
  
  <!-- Beak -->
  <path d="M 90 90 L 98 88 L 90 93 Z" fill="#f59e0b" stroke="#d97706" stroke-width="1.5"/>
  
  <!-- Eye -->
  <circle cx="85" cy="88" r="3" fill="#1e293b"/>
  <circle cx="86" cy="87" r="1.5" fill="white"/>
  
  <!-- Cute tuft on head -->
  <path d="M 78 77 Q 75 72, 78 75" stroke="#2563eb" stroke-width="2" stroke-linecap="round" fill="none"/>
  
  
  <!-- Right bird (green) -->
  <!-- Body -->
  <ellipse cx="120" cy="110" rx="18" ry="22" fill="#4ade80" stroke="#16a34a" stroke-width="2.5"/>
  
  <!-- Wing -->
  <ellipse cx="128" cy="115" rx="8" ry="12" fill="#22c55e" stroke="#16a34a" stroke-width="2"/>
  
  <!-- Head -->
  <circle cx="120" cy="90" r="14" fill="#4ade80" stroke="#16a34a" stroke-width="2.5"/>
  
  <!-- Beak -->
  <path d="M 110 90 L 102 88 L 110 93 Z" fill="#f59e0b" stroke="#d97706" stroke-width="1.5"/>
  
  <!-- Eye -->
  <circle cx="115" cy="88" r="3" fill="#1e293b"/>
  <circle cx="114" cy="87" r="1.5" fill="white"/>
  
  <!-- Cute tuft on head -->
  <path d="M 122 77 Q 125 72, 122 75" stroke="#16a34a" stroke-width="2" stroke-linecap="round" fill="none"/>
  
  <!-- Little feet for left bird -->
  <path d="M 75 130 L 73 138 M 75 130 L 77 138" stroke="#f59e0b" stroke-width="2" stroke-linecap="round"/>
  
  <!-- Little feet for right bird -->
  <path d="M 125 130 L 123 138 M 125 130 L 127 138" stroke="#f59e0b" stroke-width="2" stroke-linecap="round"/>
  
  <!-- Eggs in nest (subtle) -->
  <ellipse cx="100" cy="140" rx="6" ry="8" fill="#f8fafc" stroke="#cbd5e1" stroke-width="1.5"/>
  
  <!-- Little heart above them -->
  <path d="M 100 65 Q 100 58, 105 58 Q 110 58, 110 65 Q 110 72, 105 76 L 100 80 L 95 76 Q 90 72, 90 65 Q 90 58, 95 58 Q 100 58, 100 65 Z" 
        fill="#ef4444" opacity="0.8" stroke="#dc2626" stroke-width="1.5"/>
  
  <!-- Small sparkles -->
  <path d="M 45 80 L 47 82 L 45 84 L 43 82 Z" fill="#fbbf24"/>
  <path d="M 155 85 L 157 87 L 155 89 L 153 87 Z" fill="#fbbf24"/>
  <path d="M 100 50 L 102 52 L 100 54 L 98 52 Z" fill="#fbbf24"/>
  
  <!-- Tiny leaves on nest edge for charm -->
  <path d="M 48 133 Q 45 130, 48 128" fill="#16a34a" stroke="#15803d" stroke-width="1"/>
  <path d="M 152 133 Q 155 130, 152 128" fill="#16a34a" stroke="#15803d" stroke-width="1"/>
</svg>